<svg width="96" height="96" viewBox="0 0 96 96" fill="none" xmlns="http://www.w3.org/2000/svg">
<mask id="mask0_1_47" style="mask-type:alpha" maskUnits="userSpaceOnUse" x="0" y="0" width="96" height="96">
<rect width="96" height="96" fill="#D9D9D9"/>
</mask>
<g mask="url(#mask0_1_47)">
<path d="M42.4 66.4L70.6 38.2L65 32.6L42.4 55.2L31 43.8L25.4 49.4L42.4 66.4ZM48 88C42.4667 88 37.2667 86.9493 32.4 84.848C27.5333 82.7493 23.3 79.9 19.7 76.3C16.1 72.7 13.2507 68.4667 11.152 63.6C9.05067 58.7333 8 53.5333 8 48C8 42.4667 9.05067 37.2667 11.152 32.4C13.2507 27.5333 16.1 23.3 19.7 19.7C23.3 16.1 27.5333 13.2493 32.4 11.148C37.2667 9.04933 42.4667 8 48 8C53.5333 8 58.7333 9.04933 63.6 11.148C68.4667 13.2493 72.7 16.1 76.3 19.7C79.9 23.3 82.7493 27.5333 84.848 32.4C86.9493 37.2667 88 42.4667 88 48C88 53.5333 86.9493 58.7333 84.848 63.6C82.7493 68.4667 79.9 72.7 76.3 76.3C72.7 79.9 68.4667 82.7493 63.6 84.848C58.7333 86.9493 53.5333 88 48 88ZM48 80C56.8667 80 64.4173 76.884 70.652 70.652C76.884 64.4173 80 56.8667 80 48C80 39.1333 76.884 31.5827 70.652 25.348C64.4173 19.116 56.8667 16 48 16C39.1333 16 31.584 19.116 25.352 25.348C19.1173 31.5827 16 39.1333 16 48C16 56.8667 19.1173 64.4173 25.352 70.652C31.584 76.884 39.1333 80 48 80Z" fill="#101010"/>
</g>
</svg>
