<svg width="48" height="48" viewBox="0 0 48 48" fill="none" xmlns="http://www.w3.org/2000/svg">
<mask id="mask0_1_37" style="mask-type:alpha" maskUnits="userSpaceOnUse" x="0" y="0" width="48" height="48">
<rect width="48" height="48" fill="#D9D9D9"/>
</mask>
<g mask="url(#mask0_1_37)">
<path d="M19 8C18.6333 8 18.2833 8 17.95 8C17.6167 8 17.3 8.03333 17 8.1C18.9 10.3 20.3753 12.758 21.426 15.474C22.4753 18.1913 23 21.0333 23 24C23 26.9667 22.4753 29.808 21.426 32.524C20.3753 35.2413 18.9 37.7 17 39.9C17.3 39.9667 17.6167 40 17.95 40C18.2833 40 18.6333 40 19 40C23.4333 40 27.2087 38.442 30.326 35.326C33.442 32.2087 35 28.4333 35 24C35 19.5667 33.442 15.7913 30.326 12.674C27.2087 9.558 23.4333 8 19 8ZM19 4C21.7667 4 24.3667 4.52467 26.8 5.574C29.2333 6.62467 31.35 8.05 33.15 9.85C34.95 11.65 36.3747 13.7667 37.424 16.2C38.4747 18.6333 39 21.2333 39 24C39 26.7667 38.4747 29.3667 37.424 31.8C36.3747 34.2333 34.95 36.35 33.15 38.15C31.35 39.95 29.2333 41.3747 26.8 42.424C24.3667 43.4747 21.7667 44 19 44C17.2333 44 15.5087 43.7753 13.826 43.326C12.142 42.8753 10.5333 42.2 9 41.3C12.1 39.5 14.5413 37.0667 16.324 34C18.108 30.9333 19 27.6 19 24C19 20.4 18.108 17.0667 16.324 14C14.5413 10.9333 12.1 8.5 9 6.7C10.5333 5.8 12.142 5.12467 13.826 4.674C15.5087 4.22467 17.2333 4 19 4Z" fill="#333333"/>
</g>
</svg>
